<svg xmlns="http://www.w3.org/2000/svg" width="120" height="120" viewBox="0 0 120 120"><path fill="#AED911" d="M0 0h120v120h-120z"/><path fill="#33170A" d="M15 73h90v1h-90zM15 103h90v1h-90zM27.912 92.697l1.485 2.945c-.623 1.047-1.398 1.842-2.324 2.381-.931.539-1.913.81-2.948.81-.883 0-1.695-.231-2.439-.692-.745-.461-1.391-1.125-1.938-1.992s-.975-1.929-1.285-3.186c-.309-1.257-.463-2.683-.463-4.274 0-1.619.174-3.061.525-4.32.348-1.261.832-2.321 1.449-3.181.618-.86 1.348-1.517 2.189-1.967.841-.45 1.747-.677 2.719-.677.614 0 1.192.117 1.735.351.541.231 1.015.526 1.421.88.406.355.729.75.969 1.186.239.436.36.85.36 1.244 0 .518-.214.941-.637 1.275l-2.054 1.307-.047-.076c.243-.232.421-.496.533-.789.11-.293.167-.592.167-.896 0-.344-.066-.682-.199-1.016-.13-.336-.309-.637-.538-.904-.228-.268-.504-.483-.828-.646s-.676-.242-1.049-.242c-.477 0-.916.114-1.321.341-.405.229-.769.544-1.088.949-.319.404-.6.881-.843 1.428-.243.545-.446 1.139-.607 1.775-.162.639-.283 1.311-.365 2.02-.081.709-.121 1.416-.121 2.125 0 1.053.074 2.074.22 3.067.147.991.37 1.878.669 2.657s.671 1.404 1.117 1.875.972.706 1.58.706c.501 0 .959-.117 1.377-.35.422-.231.797-.549 1.127-.949.333-.399.614-.87.843-1.411.23-.542.417-1.127.56-1.754h.049zM29.802 91.227c0-1.244.118-2.348.356-3.309.238-.963.562-1.772.974-2.43.41-.658.894-1.156 1.451-1.495s1.159-.509 1.809-.509c.617 0 1.199.17 1.747.509s1.024.837 1.43 1.495c.402.657.725 1.467.963 2.43.238.961.358 2.064.358 3.309 0 1.248-.12 2.354-.358 3.316s-.561 1.774-.963 2.434c-.405.659-.882 1.161-1.43 1.506-.548.345-1.13.517-1.747.517-.649 0-1.251-.172-1.809-.518-.558-.345-1.041-.847-1.451-1.506-.411-.659-.735-1.471-.974-2.434s-.356-2.067-.356-3.315zm2.28 0c0 2.044.201 3.585.607 4.621.405 1.037.973 1.557 1.702 1.557.739 0 1.294-.52 1.664-1.557.37-1.036.554-2.577.554-4.621 0-2.045-.184-3.578-.554-4.605s-.925-1.541-1.664-1.541c-.729 0-1.297.514-1.702 1.541-.406 1.026-.607 2.56-.607 4.605zM48.957 89.076c-.011 1.195-.008 2.355.006 3.481.018 1.122.06 2.269.131 3.433.041.619.195 1.143.472 1.574.272.43.688.736 1.245.918v.076h-2.797c-.319-.142-.562-.334-.726-.576-.165-.244-.287-.514-.367-.807-.062.111-.154.259-.282.441-.125.182-.287.356-.486.524-.196.167-.436.313-.715.44-.277.127-.604.194-.978.205-.762.01-1.425-.186-1.992-.586-.567-.398-1.042-.957-1.428-1.67-.387-.715-.674-1.564-.867-2.547-.192-.982-.288-2.051-.288-3.206 0-1.146.116-2.168.349-3.069.233-.902.561-1.666.98-2.295.421-.628.921-1.105 1.505-1.436.581-.329 1.223-.494 1.923-.494.183 0 .378.022.592.068.214.045.425.121.639.229.212.105.413.242.6.41.188.166.342.367.465.6 0-.942-.006-1.752-.016-2.432-.012-.678-.079-1.238-.209-1.68-.129-.439-.344-.766-.647-.98-.304-.211-.746-.318-1.332-.318v-.074l4.423-1.217c-.042.365-.071.856-.092 1.475-.022.617-.039 1.285-.054 2.006-.015.719-.024 1.448-.029 2.188-.006.739-.008 1.419-.008 2.036l-.017 3.283zm-4.239 8.389c.536 0 1.012-.28 1.428-.84.415-.561.648-1.399.699-2.521.03-.509.052-.989.067-1.442s.026-.896.032-1.328l.014-1.291.008-1.328c0-.916-.076-1.629-.229-2.137-.151-.511-.331-.885-.538-1.123-.209-.238-.421-.385-.639-.436-.219-.051-.394-.076-.523-.076-1.916 0-2.872 1.955-2.872 5.863 0 1.079.06 2.034.182 2.864.121.829.295 1.523.523 2.085.229.559.496.984.806 1.274s.656.436 1.042.436zM56.609 93.372l3.282.305c0 .913-.128 1.7-.383 2.364-.256.665-.582 1.217-.977 1.658-.396.441-.835.769-1.314.981-.482.213-.953.32-1.413.32-.669 0-1.291-.172-1.869-.518-.577-.345-1.078-.847-1.503-1.506s-.763-1.471-1.004-2.434c-.243-.963-.365-2.068-.365-3.316 0-1.244.122-2.348.365-3.309.241-.963.579-1.772 1.004-2.43.425-.658.926-1.159 1.503-1.502.578-.346 1.2-.518 1.869-.518.553 0 1.061.15 1.525.447.466.299.876.74 1.226 1.321.352.581.634 1.305.851 2.171.215.864.348 1.858.396 2.982l-6.383 2.252c.13 1.662.425 2.872.882 3.628.455.757 1.032 1.134 1.731 1.134.334 0 .614-.064.843-.19s.416-.294.563-.502c.146-.208.253-.441.318-.7.064-.258.1-.524.1-.799 0-.324-.104-.644-.312-.958-.207-.315-.524-.583-.95-.808l.015-.073zm-3.265-2.085l1.093-.426c.437-.172.981-.41 1.641-.715.376-.172.699-.344.974-.518.271-.172.515-.318.729-.44-.101-1.411-.317-2.45-.646-3.12-.329-.67-.772-1.004-1.33-1.004-.78 0-1.386.518-1.815 1.553-.432 1.033-.645 2.571-.645 4.609v.061z"/><path fill="#fff" d="M69.838 84.716c.243-.233.421-.497.531-.79.112-.295.167-.594.167-.898 0-.343-.064-.682-.197-1.018-.133-.334-.312-.635-.54-.904-.227-.268-.504-.482-.827-.645-.325-.163-.675-.243-1.048-.243-.447 0-.857.114-1.231.341-.375.229-.713.545-1.011.949-.299.406-.561.883-.781 1.43-.225.547-.411 1.139-.562 1.778-.153.637-.267 1.312-.343 2.021-.075.709-.114 1.418-.114 2.128 0 1.052.07 2.073.213 3.063.143.991.354 1.876.639 2.654.282.779.641 1.402 1.071 1.874.43.47.934.705 1.511.705.669 0 1.254-.119 1.757-.356.501-.238.924-.554 1.268-.949.052-1.304.074-2.449.069-3.436-.004-.986-.045-1.832-.12-2.542-.056-.476-.197-.879-.422-1.214-.225-.332-.553-.575-.986-.727v-.076h5.214v.076c-.964.324-1.445 1.058-1.445 2.203 0 .404-.007.876-.022 1.412l-.039 1.648c-.009.563-.012 1.113-.006 1.65.004.537.028 1.018.067 1.443.048.547.18 1.005.4 1.375.22.37.567.641 1.045.812v.076h-3.026c-.31-.142-.521-.369-.64-.685-1.084.64-2.269.959-3.556.959-.759 0-1.47-.231-2.128-.691-.657-.461-1.227-1.125-1.702-1.991-.477-.866-.851-1.928-1.125-3.184-.273-1.256-.411-2.68-.411-4.271 0-1.621.168-3.062.504-4.323.335-1.262.796-2.322 1.389-3.183.594-.862 1.29-1.518 2.09-1.969.801-.45 1.667-.677 2.599-.677.615 0 1.192.117 1.734.351.541.232 1.015.526 1.422.881.405.355.728.749.968 1.186.24.436.358.851.358 1.245 0 .518-.212.942-.635 1.277l-2.055 1.307-.044-.072zM78.732 85.551c.291-.648.685-1.154 1.181-1.52.497-.364 1.018-.547 1.565-.547.415 0 .825.113 1.23.342.406.228.779.586 1.126 1.072l-1.627 2.658-.047-.03c.061-.161.092-.38.092-.653 0-.193-.02-.395-.059-.609-.043-.211-.106-.406-.192-.584-.086-.176-.193-.32-.327-.434-.131-.11-.292-.166-.486-.166-.243 0-.493.094-.752.281-.258.188-.493.453-.705.798-.213.344-.39.763-.532 1.253-.143.492-.214 1.047-.214 1.664 0 1.328.005 2.637.01 3.93.005 1.29.048 2.59.133 3.896.053.801.435 1.328 1.148 1.58v.076h-4.984v-.076c.532-.111.917-.316 1.148-.615.235-.299.368-.641.399-1.025.052-1.002.093-1.947.125-2.834.029-.887.045-1.756.045-2.605 0-1.287-.01-2.356-.029-3.207-.021-.851-.099-1.529-.236-2.036-.138-.508-.354-.864-.654-1.071-.297-.207-.726-.311-1.283-.311v-.078l4.075-1.215c-.08.273-.124.59-.133.95-.012.359-.017.731-.017 1.116zM86.605 90.701c0-.939-.005-1.741-.014-2.398-.009-.66-.048-1.209-.121-1.649-.071-.441-.148-.788-.23-1.042-.082-.252-.203-.442-.362-.568-.155-.127-.356-.206-.598-.236-.239-.029-.532-.045-.879-.045v-.077l4.423-1.216c-.111 1.104-.17 2.323-.175 3.654-.006 1.334-.008 2.713-.008 4.142v1.429l.008 1.094c.005.344.017.707.038 1.086.021.381.05.855.093 1.422.039.547.182 1.005.425 1.375s.623.641 1.139.812v.076h-5.486v-.076c.493-.172.845-.455 1.058-.852.214-.394.326-.86.341-1.398.028-.465.062-.873.099-1.221.037-.351.066-.668.087-.951l.065-.79.056-.745.032-.812.009-1.014zm-.592-10.908c0-.387.133-.713.396-.98.263-.27.588-.403.974-.403.384 0 .709.134.979.403.268.268.402.594.402.98 0 .383-.135.708-.402.972-.271.263-.596.394-.979.394-.386 0-.711-.131-.974-.394-.263-.264-.396-.589-.396-.972zM100.146 89.076c-.01 1.195-.007 2.355.009 3.481.016 1.122.058 2.269.129 3.433.041.619.196 1.143.473 1.574.271.43.687.736 1.244.918v.076h-2.796c-.319-.142-.562-.334-.727-.576-.165-.244-.286-.514-.366-.807-.062.111-.155.259-.282.441-.126.182-.289.356-.486.524-.197.167-.437.313-.713.44-.28.127-.607.194-.979.205-.763.01-1.426-.186-1.993-.586-.567-.398-1.041-.957-1.428-1.67-.386-.715-.674-1.564-.867-2.547-.191-.982-.287-2.051-.287-3.206 0-1.146.115-2.168.349-3.069.232-.902.56-1.666.98-2.295.42-.628.921-1.105 1.504-1.436.582-.329 1.223-.494 1.924-.494.182 0 .378.022.592.068.213.045.425.121.639.229.211.105.413.242.6.41.186.166.342.367.464.6 0-.942-.005-1.752-.015-2.432-.013-.678-.08-1.238-.209-1.68-.129-.439-.344-.766-.648-.98-.303-.211-.746-.318-1.333-.318v-.074l4.424-1.217c-.041.365-.071.856-.092 1.475-.021.617-.039 1.285-.053 2.006-.016.719-.025 1.448-.03 2.188-.006.739-.007 1.419-.007 2.036l-.02 3.283zm-4.239 8.389c.536 0 1.013-.28 1.428-.84.415-.561.648-1.399.699-2.521.03-.509.053-.989.067-1.442.017-.453.026-.896.032-1.328l.015-1.291.007-1.328c0-.916-.075-1.629-.229-2.137-.149-.511-.331-.885-.538-1.123-.209-.238-.421-.385-.639-.436s-.393-.076-.523-.076c-1.915 0-2.871 1.955-2.871 5.863 0 1.079.059 2.034.182 2.864.12.829.294 1.523.523 2.085.228.559.496.984.805 1.274.31.291.656.436 1.042.436z"/></svg>